<svg width="17" height="17" viewBox="0 0 17 17" fill="none" xmlns="http://www.w3.org/2000/svg">
<path d="M2.11538 16.5C1.65513 16.5 1.27083 16.3458 0.9625 16.0375C0.654167 15.7292 0.5 15.3449 0.5 14.8846V2.11537C0.5 1.65512 0.654167 1.27083 0.9625 0.9625C1.27083 0.654167 1.65513 0.5 2.11538 0.5H8V16.5H2.11538ZM9 16.5V8.5H16.5V14.8846C16.5 15.3449 16.3458 15.7292 16.0375 16.0375C15.7292 16.3458 15.3449 16.5 14.8846 16.5H9ZM9 7.5V0.5H14.8846C15.3449 0.5 15.7292 0.654167 16.0375 0.9625C16.3458 1.27083 16.5 1.65512 16.5 2.11537V7.5H9Z" fill="#DE2E1F"/>
</svg>
