<svg width="17" height="19" viewBox="0 0 17 19" fill="none" xmlns="http://www.w3.org/2000/svg">
<path d="M7.44995 10.475L12.0538 5.87113L10.9846 4.80193L7.44995 8.33655L6.04995 6.93655L4.98075 8.00575L7.44995 10.475ZM8.49995 17.0135C10.4564 15.2622 11.9535 13.5824 12.9913 11.974C14.0291 10.3657 14.548 8.95703 14.548 7.74805C14.548 5.92498 13.9689 4.42627 12.8105 3.2519C11.6522 2.07753 10.2153 1.49035 8.49995 1.49035C6.78457 1.49035 5.34771 2.07753 4.18938 3.2519C3.03105 4.42627 2.45188 5.92498 2.45188 7.74805C2.45188 8.95703 2.97079 10.3657 4.0086 11.974C5.04644 13.5824 6.54355 15.2622 8.49995 17.0135ZM8.49995 19.0096C5.9833 16.8288 4.09613 14.7993 2.83843 12.9211C1.58075 11.0429 0.951904 9.31857 0.951904 7.74805C0.951904 5.44038 1.69838 3.57213 3.19133 2.14328C4.68426 0.714425 6.4538 0 8.49995 0C10.5461 0 12.3156 0.714425 13.8086 2.14328C15.3015 3.57213 16.048 5.44038 16.048 7.74805C16.048 9.31857 15.4192 11.0429 14.1615 12.9211C12.9038 14.7993 11.0166 16.8288 8.49995 19.0096Z" fill="#BABABA"/>
</svg>
