<svg width="15" height="19" viewBox="0 0 15 19" fill="none" xmlns="http://www.w3.org/2000/svg">
<path d="M6.61658 9.6L10.8743 5.3423L10.1608 4.62885L6.61658 8.17307L5.21658 6.77307L4.50311 7.48655L6.61658 9.6ZM7.66658 18.0192C5.31658 15.941 3.54639 14.0029 2.35601 12.2048C1.16563 10.4067 0.570435 8.77052 0.570435 7.29615C0.570435 5.18077 1.25922 3.43589 2.63678 2.06153C4.01433 0.687175 5.69094 0 7.66658 0C9.64223 0 11.3188 0.687175 12.6964 2.06153C14.074 3.43589 14.7627 5.18077 14.7627 7.29615C14.7627 8.77052 14.1675 10.4067 12.9772 12.2048C11.7868 14.0029 10.0166 15.941 7.66658 18.0192Z" fill="#DE2E1F"/>
</svg>
