<svg width="15" height="16" viewBox="0 0 15 16" fill="none" xmlns="http://www.w3.org/2000/svg">
<path d="M7.49997 7.69231C6.53749 7.69231 5.71354 7.34961 5.02813 6.66421C4.34271 5.97879 4 5.15484 4 4.19236C4 3.22986 4.34271 2.40591 5.02813 1.72051C5.71354 1.03509 6.53749 0.692383 7.49997 0.692383C8.46246 0.692383 9.28641 1.03509 9.97183 1.72051C10.6572 2.40591 11 3.22986 11 4.19236C11 5.15484 10.6572 5.97879 9.97183 6.66421C9.28641 7.34961 8.46246 7.69231 7.49997 7.69231ZM0 15.3077V13.0846C0 12.5949 0.133016 12.1414 0.39905 11.7241C0.665066 11.3068 1.02051 10.986 1.46537 10.7616C2.45384 10.277 3.45096 9.91351 4.45672 9.67121C5.46249 9.42891 6.47691 9.30776 7.49997 9.30776C8.52304 9.30776 9.53746 9.42891 10.5432 9.67121C11.549 9.91351 12.5461 10.277 13.5346 10.7616C13.9794 10.986 14.3349 11.3068 14.6009 11.7241C14.8669 12.1414 15 12.5949 15 13.0846V15.3077H0Z" fill="#DE2E1F"/>
</svg>
