<svg width="15" height="16" viewBox="0 0 15 16" fill="none" xmlns="http://www.w3.org/2000/svg">
<path d="M7.49997 7.69231C6.53749 7.69231 5.71354 7.34961 5.02813 6.66421C4.34271 5.97879 4 5.15484 4 4.19236C4 3.22986 4.34271 2.40591 5.02813 1.72051C5.71354 1.03509 6.53749 0.692383 7.49997 0.692383C8.46246 0.692383 9.28641 1.03509 9.97183 1.72051C10.6572 2.40591 11 3.22986 11 4.19236C11 5.15484 10.6572 5.97879 9.97183 6.66421C9.28641 7.34961 8.46246 7.69231 7.49997 7.69231ZM0 15.3077V13.0846C0 12.5949 0.133016 12.1414 0.39905 11.7241C0.665066 11.3068 1.02051 10.986 1.46537 10.7616C2.45384 10.277 3.45096 9.91351 4.45672 9.67121C5.46249 9.42891 6.47691 9.30776 7.49997 9.30776C8.52304 9.30776 9.53746 9.42891 10.5432 9.67121C11.549 9.91351 12.5461 10.277 13.5346 10.7616C13.9794 10.986 14.3349 11.3068 14.6009 11.7241C14.8669 12.1414 15 12.5949 15 13.0846V15.3077H0ZM1.49997 13.8077H13.5V13.0846C13.5 12.8821 13.4413 12.6946 13.324 12.5221C13.2067 12.3497 13.0474 12.209 12.8461 12.1C11.9846 11.6757 11.1061 11.3542 10.2107 11.1356C9.31524 10.917 8.41167 10.8077 7.49997 10.8077C6.58827 10.8077 5.68471 10.917 4.78927 11.1356C3.89384 11.3542 3.01536 11.6757 2.15382 12.1C1.95254 12.209 1.79325 12.3497 1.67595 12.5221C1.55863 12.6946 1.49997 12.8821 1.49997 13.0846V13.8077ZM7.49997 6.19236C8.04997 6.19236 8.52081 5.99653 8.91247 5.60486C9.30414 5.21319 9.49998 4.74236 9.49998 4.19236C9.49998 3.64236 9.30414 3.17153 8.91247 2.77986C8.52081 2.38819 8.04997 2.19236 7.49997 2.19236C6.94997 2.19236 6.47914 2.38819 6.08747 2.77986C5.69581 3.17153 5.49997 3.64236 5.49997 4.19236C5.49997 4.74236 5.69581 5.21319 6.08747 5.60486C6.47914 5.99653 6.94997 6.19236 7.49997 6.19236Z" fill="#BABABA"/>
</svg>
