<svg width="20" height="18" viewBox="0 0 20 18" fill="none" xmlns="http://www.w3.org/2000/svg">
<path d="M14.9615 17.4999H5.15385V6.49994L11.4231 0.307617L11.8654 0.749942C11.9564 0.840959 12.033 0.957625 12.0952 1.09994C12.1574 1.24224 12.1885 1.37301 12.1885 1.49224V1.64994L11.1654 6.49994H17.8846C18.3026 6.49994 18.6763 6.66468 19.0058 6.99417C19.3353 7.32365 19.5 7.69737 19.5 8.11532V9.34609C19.5 9.43713 19.4907 9.53648 19.4721 9.64417C19.4535 9.75187 19.4256 9.85122 19.3885 9.94224L16.6577 16.4153C16.5205 16.723 16.2898 16.9807 15.9654 17.1884C15.641 17.3961 15.3064 17.4999 14.9615 17.4999ZM4.15385 6.49994V17.4999H0.5V6.49994H4.15385Z" fill="#DE2E1F"/>
</svg>
