<svg width="19" height="18" viewBox="0 0 19 18" fill="none" xmlns="http://www.w3.org/2000/svg">
<path d="M14.2077 17.2365H4.74038V6.43653L10.7115 0.5L11.4731 1.26151C11.5665 1.35498 11.6441 1.47873 11.7058 1.63276C11.7676 1.7868 11.7984 1.9319 11.7984 2.06805V2.29652L10.8431 6.43653H16.8731C17.3012 6.43653 17.6793 6.60066 18.0076 6.92894C18.3359 7.2572 18.5 7.63538 18.5 8.06346V9.51728C18.5 9.61074 18.4879 9.7117 18.4636 9.82015C18.4394 9.92862 18.4123 10.0296 18.3823 10.123L15.8035 16.2084C15.6742 16.4969 15.4579 16.7403 15.1544 16.9388C14.851 17.1373 14.5354 17.2365 14.2077 17.2365ZM6.09036 15.8865H14.2077C14.2712 15.8865 14.3361 15.8692 14.4024 15.8346C14.4688 15.8 14.5193 15.7423 14.5539 15.6615L17.15 9.58651V8.06346C17.15 7.98269 17.1241 7.91633 17.0721 7.8644C17.0202 7.81247 16.9538 7.78651 16.8731 7.78651H9.13653L10.265 2.8538L6.09036 7.01113V15.8865ZM4.74038 6.43653V7.78651H1.84998V15.8865H4.74038V17.2365H0.5V6.43653H4.74038Z" fill="#BABABA"/>
</svg>
