<svg width="16" height="16" viewBox="0 0 16 16" fill="none" xmlns="http://www.w3.org/2000/svg">
<g clip-path="url(#clip0_2312_1819)">
<path d="M13.1111 6.4647H12.0278C12.2708 6.04505 12.4167 5.56138 12.4167 5.04215C12.4167 3.47023 11.1736 2.19705 9.63889 2.19705C9.40278 2.19705 9.18056 2.23261 8.95833 2.28952C8.38889 1.80585 7.66667 1.5 6.86111 1.5C5.54861 1.5 4.42361 2.28952 3.89583 3.42756C2.79861 3.80453 2 4.85722 2 6.10906C2 7.43203 2.88889 8.53451 4.08333 8.85458V15H11.7222V13.5774H13.1111C13.875 13.5774 14.5 12.9373 14.5 12.1549V7.88725C14.5 7.10485 13.875 6.4647 13.1111 6.4647ZM4.77778 7.53161C4.01389 7.53161 3.38889 6.89146 3.38889 6.10906C3.38889 5.50448 3.77083 4.97102 4.34028 4.77187L4.89583 4.57982L5.14583 4.03925C5.47222 3.34932 6.125 2.92255 6.86111 2.92255C7.40972 2.92255 7.82639 3.1715 8.06944 3.38488L8.61111 3.84721C8.61111 3.84721 9.05556 3.6196 9.63194 3.6196C10.3958 3.6196 11.0208 4.25975 11.0208 5.04215H8.9375C6.63194 5.04215 6.27083 7.53161 4.77778 7.53161ZM13.1111 12.1549H11.7222V7.88725H13.1111V12.1549Z" fill="#9C9C9C"/>
</g>
<defs>
<clipPath id="clip0_2312_1819">
<rect width="14.5" height="14.5" fill="white" transform="translate(1 0.5)"/>
</clipPath>
</defs>
</svg>
