<svg width="16" height="17" viewBox="0 0 16 17" fill="none" xmlns="http://www.w3.org/2000/svg">
<g clip-path="url(#clip0_2271_4812)">
<path d="M13.1111 6.9647H12.0278C12.2708 6.54505 12.4167 6.06138 12.4167 5.54215C12.4167 3.97023 11.1736 2.69705 9.63889 2.69705C9.40278 2.69705 9.18056 2.73261 8.95833 2.78952C8.38889 2.30585 7.66667 2 6.86111 2C5.54861 2 4.42361 2.78952 3.89583 3.92756C2.79861 4.30453 2 5.35722 2 6.60906C2 7.93203 2.88889 9.03451 4.08333 9.35458V15.5H11.7222V14.0774H13.1111C13.875 14.0774 14.5 13.4373 14.5 12.6549V8.38725C14.5 7.60485 13.875 6.9647 13.1111 6.9647ZM4.77778 8.03161C4.01389 8.03161 3.38889 7.39146 3.38889 6.60906C3.38889 6.00448 3.77083 5.47102 4.34028 5.27187L4.89583 5.07982L5.14583 4.53925C5.47222 3.84932 6.125 3.42255 6.86111 3.42255C7.40972 3.42255 7.82639 3.6715 8.06944 3.88488L8.61111 4.34721C8.61111 4.34721 9.05556 4.1196 9.63194 4.1196C10.3958 4.1196 11.0208 4.75975 11.0208 5.54215H8.9375C6.63194 5.54215 6.27083 8.03161 4.77778 8.03161ZM13.1111 12.6549H11.7222V8.38725H13.1111V12.6549Z" fill="#DE2E1F"/>
</g>
<defs>
<clipPath id="clip0_2271_4812">
<rect width="14.5" height="14.5" fill="white" transform="translate(1 1)"/>
</clipPath>
</defs>
</svg>
