<svg width="16" height="17" viewBox="0 0 16 17" fill="none" xmlns="http://www.w3.org/2000/svg">
<path d="M13 5.5H2C1.86739 5.5 1.74021 5.55268 1.64645 5.64645C1.55268 5.74021 1.5 5.86739 1.5 6V9C1.50149 9.85124 1.68354 10.6925 2.03411 11.4682C2.38468 12.2439 2.89581 12.9364 3.53375 13.5H2C1.86739 13.5 1.74021 13.5527 1.64645 13.6464C1.55268 13.7402 1.5 13.8674 1.5 14C1.5 14.1326 1.55268 14.2598 1.64645 14.3536C1.74021 14.4473 1.86739 14.5 2 14.5H13C13.1326 14.5 13.2598 14.4473 13.3536 14.3536C13.4473 14.2598 13.5 14.1326 13.5 14C13.5 13.8674 13.4473 13.7402 13.3536 13.6464C13.2598 13.5527 13.1326 13.5 13 13.5H11.4663C12.232 12.8213 12.8127 11.9591 13.1538 10.9944C13.7888 10.9552 14.3851 10.6754 14.821 10.212C15.2569 9.74852 15.4998 9.13627 15.5 8.5V8C15.5 7.33696 15.2366 6.70107 14.7678 6.23223C14.2989 5.76339 13.663 5.5 13 5.5ZM14.5 8.5C14.4998 8.82349 14.395 9.13824 14.2013 9.3973C14.0075 9.65636 13.7352 9.84585 13.425 9.9375C13.4745 9.62745 13.4996 9.31398 13.5 9V6.58625C13.7924 6.68962 14.0455 6.88107 14.2246 7.13425C14.4037 7.38743 14.4999 7.68989 14.5 8V8.5ZM7 4V2C7 1.86739 7.05268 1.74021 7.14645 1.64645C7.24021 1.55268 7.36739 1.5 7.5 1.5C7.63261 1.5 7.75979 1.55268 7.85355 1.64645C7.94732 1.74021 8 1.86739 8 2V4C8 4.13261 7.94732 4.25979 7.85355 4.35355C7.75979 4.44732 7.63261 4.5 7.5 4.5C7.36739 4.5 7.24021 4.44732 7.14645 4.35355C7.05268 4.25979 7 4.13261 7 4ZM9 4V2C9 1.86739 9.05268 1.74021 9.14645 1.64645C9.24021 1.55268 9.36739 1.5 9.5 1.5C9.63261 1.5 9.75979 1.55268 9.85355 1.64645C9.94732 1.74021 10 1.86739 10 2V4C10 4.13261 9.94732 4.25979 9.85355 4.35355C9.75979 4.44732 9.63261 4.5 9.5 4.5C9.36739 4.5 9.24021 4.44732 9.14645 4.35355C9.05268 4.25979 9 4.13261 9 4ZM5 4V2C5 1.86739 5.05268 1.74021 5.14645 1.64645C5.24021 1.55268 5.36739 1.5 5.5 1.5C5.63261 1.5 5.75979 1.55268 5.85355 1.64645C5.94732 1.74021 6 1.86739 6 2V4C6 4.13261 5.94732 4.25979 5.85355 4.35355C5.75979 4.44732 5.63261 4.5 5.5 4.5C5.36739 4.5 5.24021 4.44732 5.14645 4.35355C5.05268 4.25979 5 4.13261 5 4Z" fill="#DE2E1F"/>
</svg>
