<svg width="16" height="17" viewBox="0 0 16 17" fill="none" xmlns="http://www.w3.org/2000/svg">
<path d="M13 5.99984H8.5V5.43734C8.92916 5.32586 9.30923 5.07519 9.58066 4.72458C9.8521 4.37398 9.99958 3.94324 10 3.49984C10 1.74984 8.3475 0.630462 8.2775 0.583587C8.19533 0.528767 8.09877 0.499512 8 0.499512C7.90123 0.499512 7.80467 0.528767 7.7225 0.583587C7.6525 0.630462 6 1.74984 6 3.49984C6.00042 3.94324 6.1479 4.37398 6.41934 4.72458C6.69077 5.07519 7.07084 5.32586 7.5 5.43734V5.99984H3C2.60218 5.99984 2.22064 6.15787 1.93934 6.43918C1.65804 6.72048 1.5 7.10201 1.5 7.49984V8.95796C1.50051 9.50341 1.67574 10.0344 2 10.473V12.9998C2 13.3977 2.15804 13.7792 2.43934 14.0605C2.72064 14.3418 3.10218 14.4998 3.5 14.4998H12.5C12.8978 14.4998 13.2794 14.3418 13.5607 14.0605C13.842 13.7792 14 13.3977 14 12.9998V10.473C14.3243 10.0344 14.4995 9.50341 14.5 8.95796V7.49984C14.5 7.10201 14.342 6.72048 14.0607 6.43918C13.7794 6.15787 13.3978 5.99984 13 5.99984ZM7 3.49984C7 2.65171 7.625 1.97109 8 1.63796C8.375 1.97109 9 2.65171 9 3.49984C9 3.76505 8.89464 4.01941 8.70711 4.20694C8.51957 4.39448 8.26522 4.49984 8 4.49984C7.73478 4.49984 7.48043 4.39448 7.29289 4.20694C7.10536 4.01941 7 3.76505 7 3.49984ZM13.5 8.95796C13.5 9.78609 12.8462 10.4773 12.0425 10.4992C11.842 10.5049 11.6424 10.4703 11.4556 10.3975C11.2687 10.3247 11.0983 10.2152 10.9545 10.0754C10.8107 9.93561 10.6964 9.7684 10.6183 9.58366C10.5402 9.39892 10.5 9.20039 10.5 8.99984C10.5 8.86723 10.4473 8.74005 10.3536 8.64628C10.2598 8.55252 10.1326 8.49984 10 8.49984C9.86739 8.49984 9.74021 8.55252 9.64645 8.64628C9.55268 8.74005 9.5 8.86723 9.5 8.99984C9.5 9.39766 9.34196 9.77919 9.06066 10.0605C8.77936 10.3418 8.39782 10.4998 8 10.4998C7.60218 10.4998 7.22064 10.3418 6.93934 10.0605C6.65804 9.77919 6.5 9.39766 6.5 8.99984C6.5 8.86723 6.44732 8.74005 6.35355 8.64628C6.25979 8.55252 6.13261 8.49984 6 8.49984C5.86739 8.49984 5.74021 8.55252 5.64645 8.64628C5.55268 8.74005 5.5 8.86723 5.5 8.99984C5.50008 9.20045 5.45992 9.39904 5.38189 9.58385C5.30387 9.76867 5.18956 9.93595 5.04574 10.0758C4.90192 10.2157 4.73151 10.3253 4.54459 10.3981C4.35766 10.4709 4.15803 10.5055 3.9575 10.4998C3.15375 10.4773 2.5 9.78609 2.5 8.95796V7.49984C2.5 7.36723 2.55268 7.24005 2.64645 7.14628C2.74021 7.05252 2.86739 6.99984 3 6.99984H13C13.1326 6.99984 13.2598 7.05252 13.3536 7.14628C13.4473 7.24005 13.5 7.36723 13.5 7.49984V8.95796Z" fill="#DE2E1F"/>
</svg>
