<svg width="16" height="16" viewBox="0 0 16 16" fill="none" xmlns="http://www.w3.org/2000/svg">
<path d="M13 5.49984H8.5V4.93734C8.92916 4.82586 9.30923 4.57519 9.58066 4.22458C9.8521 3.87398 9.99958 3.44324 10 2.99984C10 1.24984 8.3475 0.130462 8.2775 0.0835865C8.19533 0.028767 8.09877 -0.000488281 8 -0.000488281C7.90123 -0.000488281 7.80467 0.028767 7.7225 0.0835865C7.6525 0.130462 6 1.24984 6 2.99984C6.00042 3.44324 6.1479 3.87398 6.41934 4.22458C6.69077 4.57519 7.07084 4.82586 7.5 4.93734V5.49984H3C2.60218 5.49984 2.22064 5.65787 1.93934 5.93918C1.65804 6.22048 1.5 6.60201 1.5 6.99984V8.45796C1.50051 9.00341 1.67574 9.53436 2 9.97296V12.4998C2 12.8977 2.15804 13.2792 2.43934 13.5605C2.72064 13.8418 3.10218 13.9998 3.5 13.9998H12.5C12.8978 13.9998 13.2794 13.8418 13.5607 13.5605C13.842 13.2792 14 12.8977 14 12.4998V9.97296C14.3243 9.53436 14.4995 9.00341 14.5 8.45796V6.99984C14.5 6.60201 14.342 6.22048 14.0607 5.93918C13.7794 5.65787 13.3978 5.49984 13 5.49984ZM7 2.99984C7 2.15171 7.625 1.47109 8 1.13796C8.375 1.47109 9 2.15171 9 2.99984C9 3.26505 8.89464 3.51941 8.70711 3.70694C8.51957 3.89448 8.26522 3.99984 8 3.99984C7.73478 3.99984 7.48043 3.89448 7.29289 3.70694C7.10536 3.51941 7 3.26505 7 2.99984ZM13.5 8.45796C13.5 9.28609 12.8462 9.97734 12.0425 9.99921C11.842 10.0049 11.6424 9.97032 11.4556 9.89752C11.2687 9.82473 11.0983 9.71519 10.9545 9.5754C10.8107 9.43561 10.6964 9.2684 10.6183 9.08366C10.5402 8.89892 10.5 8.70039 10.5 8.49984C10.5 8.36723 10.4473 8.24005 10.3536 8.14628C10.2598 8.05252 10.1326 7.99984 10 7.99984C9.86739 7.99984 9.74021 8.05252 9.64645 8.14628C9.55268 8.24005 9.5 8.36723 9.5 8.49984C9.5 8.89766 9.34196 9.27919 9.06066 9.5605C8.77936 9.8418 8.39782 9.99984 8 9.99984C7.60218 9.99984 7.22064 9.8418 6.93934 9.5605C6.65804 9.27919 6.5 8.89766 6.5 8.49984C6.5 8.36723 6.44732 8.24005 6.35355 8.14628C6.25979 8.05252 6.13261 7.99984 6 7.99984C5.86739 7.99984 5.74021 8.05252 5.64645 8.14628C5.55268 8.24005 5.5 8.36723 5.5 8.49984C5.50008 8.70045 5.45992 8.89904 5.38189 9.08385C5.30387 9.26867 5.18956 9.43595 5.04574 9.57581C4.90192 9.71567 4.73151 9.82526 4.54459 9.89809C4.35766 9.97092 4.15803 10.0055 3.9575 9.99984C3.15375 9.97734 2.5 9.28609 2.5 8.45796V6.99984C2.5 6.86723 2.55268 6.74005 2.64645 6.64628C2.74021 6.55252 2.86739 6.49984 3 6.49984H13C13.1326 6.49984 13.2598 6.55252 13.3536 6.64628C13.4473 6.74005 13.5 6.86723 13.5 6.99984V8.45796Z" fill="#9C9C9C"/>
</svg>
