<svg width="42" height="41" viewBox="0 0 42 41" fill="none" xmlns="http://www.w3.org/2000/svg">
<path d="M21 0C16.9826 0 13.0554 1.19131 9.71499 3.42327C6.37462 5.65524 3.77111 8.82762 2.23371 12.5392C0.696301 16.2509 0.294046 20.335 1.07781 24.2753C1.86157 28.2155 3.79615 31.8349 6.6369 34.6756C9.47766 37.5164 13.097 39.4509 17.0372 40.2347C20.9775 41.0185 25.0616 40.6162 28.7733 39.0788C32.4849 37.5414 35.6573 34.9379 37.8892 31.5975C40.1212 28.2571 41.3125 24.3299 41.3125 20.3125C41.3068 14.927 39.1649 9.76377 35.3568 5.95567C31.5487 2.14757 26.3855 0.00568715 21 0ZM29.918 16.7305L18.9805 27.668C18.8354 27.8132 18.663 27.9285 18.4734 28.0071C18.2837 28.0858 18.0803 28.1262 17.875 28.1262C17.6697 28.1262 17.4663 28.0858 17.2767 28.0071C17.087 27.9285 16.9147 27.8132 16.7695 27.668L12.082 22.9805C11.7889 22.6873 11.6241 22.2896 11.6241 21.875C11.6241 21.4604 11.7889 21.0627 12.082 20.7695C12.3752 20.4763 12.7729 20.3116 13.1875 20.3116C13.6021 20.3116 13.9998 20.4763 14.293 20.7695L17.875 24.3535L27.707 14.5195C27.8522 14.3744 28.0246 14.2592 28.2142 14.1806C28.4039 14.1021 28.6072 14.0616 28.8125 14.0616C29.0178 14.0616 29.2211 14.1021 29.4108 14.1806C29.6005 14.2592 29.7728 14.3744 29.918 14.5195C30.0632 14.6647 30.1783 14.837 30.2569 15.0267C30.3354 15.2164 30.3759 15.4197 30.3759 15.625C30.3759 15.8303 30.3354 16.0336 30.2569 16.2233C30.1783 16.413 30.0632 16.5853 29.918 16.7305Z" fill="#3B4555"/>
</svg>
