<svg width="24" height="24" viewBox="0 0 24 24" fill="none" xmlns="http://www.w3.org/2000/svg">
<path d="M9.85354 17.3535L14.8535 12.3535C14.9 12.3071 14.9369 12.252 14.9621 12.1913C14.9872 12.1306 15.0002 12.0655 15.0002 11.9998C15.0002 11.9341 14.9872 11.869 14.9621 11.8083C14.9369 11.7476 14.9 11.6925 14.8535 11.646L9.85354 6.64604C9.75972 6.55222 9.63247 6.49951 9.49979 6.49951C9.36711 6.49951 9.23986 6.55222 9.14604 6.64604C9.05222 6.73986 8.99951 6.86711 8.99951 6.99979C8.99951 7.13247 9.05222 7.25972 9.14604 7.35354L13.7929 11.9998L9.14604 16.646C9.09958 16.6925 9.06273 16.7476 9.03759 16.8083C9.01245 16.869 8.99951 16.9341 8.99951 16.9998C8.99951 17.0655 9.01245 17.1305 9.03759 17.1912C9.06273 17.2519 9.09958 17.3071 9.14604 17.3535C9.19249 17.4 9.24764 17.4368 9.30834 17.462C9.36904 17.4871 9.43409 17.5001 9.49979 17.5001C9.56549 17.5001 9.63054 17.4871 9.69124 17.462C9.75193 17.4368 9.80708 17.4 9.85354 17.3535Z" fill="#777777"/>
</svg>
