<svg width="24" height="24" viewBox="0 0 24 24" fill="none" xmlns="http://www.w3.org/2000/svg">
<path d="M17.3538 9.85354L12.3538 14.8535C12.3073 14.9 12.2522 14.9369 12.1915 14.9621C12.1308 14.9872 12.0657 15.0002 12 15.0002C11.9343 15.0002 11.8693 14.9872 11.8086 14.9621C11.7479 14.9369 11.6927 14.9 11.6463 14.8535L6.64628 9.85354C6.55246 9.75972 6.49976 9.63247 6.49976 9.49979C6.49976 9.36711 6.55246 9.23986 6.64628 9.14604C6.7401 9.05222 6.86735 8.99951 7.00003 8.99951C7.13272 8.99951 7.25996 9.05222 7.35378 9.14604L12 13.7929L16.6463 9.14604C16.6927 9.09958 16.7479 9.06273 16.8086 9.03759C16.8693 9.01245 16.9343 8.99951 17 8.99951C17.0657 8.99951 17.1308 9.01245 17.1915 9.03759C17.2522 9.06273 17.3073 9.09958 17.3538 9.14604C17.4002 9.19249 17.4371 9.24764 17.4622 9.30834C17.4874 9.36904 17.5003 9.43409 17.5003 9.49979C17.5003 9.56549 17.4874 9.63054 17.4622 9.69124C17.4371 9.75193 17.4002 9.80708 17.3538 9.85354Z" fill="#777777"/>
</svg>
