<svg width="46" height="46" viewBox="0 0 46 46" fill="none" xmlns="http://www.w3.org/2000/svg">
<path d="M23 13.25C21.0716 13.25 19.1866 13.8218 17.5832 14.8932C15.9798 15.9645 14.7301 17.4873 13.9922 19.2688C13.2542 21.0504 13.0611 23.0108 13.4373 24.9021C13.8136 26.7934 14.7422 28.5307 16.1057 29.8943C17.4693 31.2579 19.2066 32.1865 21.0979 32.5627C22.9892 32.9389 24.9496 32.7458 26.7312 32.0078C28.5127 31.2699 30.0355 30.0202 31.1068 28.4168C32.1782 26.8134 32.75 24.9284 32.75 23C32.7473 20.415 31.7192 17.9366 29.8913 16.1087C28.0634 14.2808 25.585 13.2527 23 13.25ZM27.2806 21.2806L22.0306 26.5306C21.961 26.6004 21.8783 26.6557 21.7872 26.6934C21.6962 26.7312 21.5986 26.7506 21.5 26.7506C21.4014 26.7506 21.3038 26.7312 21.2128 26.6934C21.1218 26.6557 21.039 26.6004 20.9694 26.5306L18.7194 24.2806C18.5786 24.1399 18.4996 23.949 18.4996 23.75C18.4996 23.551 18.5786 23.3601 18.7194 23.2194C18.8601 23.0786 19.051 22.9996 19.25 22.9996C19.449 22.9996 19.6399 23.0786 19.7806 23.2194L21.5 24.9397L26.2194 20.2194C26.2891 20.1497 26.3718 20.0944 26.4628 20.0567C26.5539 20.019 26.6515 19.9996 26.75 19.9996C26.8486 19.9996 26.9461 20.019 27.0372 20.0567C27.1282 20.0944 27.2109 20.1497 27.2806 20.2194C27.3503 20.2891 27.4056 20.3718 27.4433 20.4628C27.481 20.5539 27.5004 20.6515 27.5004 20.75C27.5004 20.8485 27.481 20.9461 27.4433 21.0372C27.4056 21.1282 27.3503 21.2109 27.2806 21.2806Z" fill="#777777"/>
</svg>
