<svg width="40" height="40" viewBox="0 0 40 40" fill="none" xmlns="http://www.w3.org/2000/svg">
<mask id="mask0_2271_4391" style="mask-type:alpha" maskUnits="userSpaceOnUse" x="0" y="0" width="40" height="40">
<rect width="40" height="40" fill="#D9D9D9"/>
</mask>
<g mask="url(#mask0_2271_4391)">
<path d="M20 22.5C18.4102 22.5 16.946 22.9386 15.6074 23.8157C14.2687 24.6928 13.2628 25.8568 12.5897 27.3077H27.4103C26.7372 25.8568 25.7313 24.6928 24.3926 23.8157C23.054 22.9386 21.5898 22.5 20 22.5ZM12.8718 19.2949L14.7051 17.5449L16.4551 19.2949L17.5 18.25L15.75 16.5L17.5 14.6667L16.4551 13.6218L14.7051 15.3718L12.8718 13.6218L11.8269 14.6667L13.5769 16.5L11.8269 18.25L12.8718 19.2949ZM23.5449 19.2949L25.2949 17.5449L27.1282 19.2949L28.1731 18.25L26.4231 16.5L28.1731 14.6667L27.1282 13.6218L25.2949 15.3718L23.5449 13.6218L22.5 14.6667L24.25 16.5L22.5 18.25L23.5449 19.2949ZM20.0056 35C17.9313 35 15.9812 34.6064 14.1552 33.8192C12.3291 33.032 10.7407 31.9636 9.38996 30.6141C8.03921 29.2646 6.96986 27.6777 6.18192 25.8534C5.39397 24.0291 5 22.0798 5 20.0056C5 17.9313 5.3936 15.9812 6.18079 14.1552C6.96801 12.3291 8.03638 10.7407 9.38587 9.38996C10.7354 8.03921 12.3223 6.96986 14.1466 6.18192C15.9709 5.39397 17.9202 5 19.9944 5C22.0687 5 24.0188 5.3936 25.8448 6.18079C27.6709 6.96801 29.2593 8.03637 30.61 9.38587C31.9608 10.7354 33.0301 12.3223 33.8181 14.1466C34.606 15.9709 35 17.9202 35 19.9944C35 22.0687 34.6064 24.0188 33.8192 25.8448C33.032 27.6709 31.9636 29.2593 30.6141 30.61C29.2646 31.9608 27.6777 33.0301 25.8534 33.8181C24.0291 34.606 22.0798 35 20.0056 35ZM20 33.3333C23.7222 33.3333 26.875 32.0417 29.4583 29.4583C32.0417 26.875 33.3333 23.7222 33.3333 20C33.3333 16.2778 32.0417 13.125 29.4583 10.5417C26.875 7.95833 23.7222 6.66667 20 6.66667C16.2778 6.66667 13.125 7.95833 10.5417 10.5417C7.95833 13.125 6.66667 16.2778 6.66667 20C6.66667 23.7222 7.95833 26.875 10.5417 29.4583C13.125 32.0417 16.2778 33.3333 20 33.3333Z" fill="#363232"/>
</g>
</svg>
