<svg width="16" height="16" viewBox="0 0 16 16" fill="none" xmlns="http://www.w3.org/2000/svg">
<mask id="mask0_2277_10600" style="mask-type:alpha" maskUnits="userSpaceOnUse" x="0" y="0" width="16" height="16">
<rect width="16" height="16" fill="#D9D9D9"/>
</mask>
<g mask="url(#mask0_2277_10600)">
<path d="M8.33332 13.4512L7.59743 12.7897C6.49231 11.7872 5.57842 10.9256 4.85577 10.2051C4.13312 9.48459 3.56048 8.84335 3.13783 8.28138C2.71518 7.71942 2.41988 7.20681 2.25193 6.74357C2.08398 6.28032 2 5.81024 2 5.33332C2 4.38717 2.31902 3.59508 2.95705 2.95705C3.59508 2.31902 4.38717 2 5.33332 2C5.91537 2 6.46537 2.13612 6.98332 2.40835C7.50126 2.68057 7.95126 3.07096 8.33332 3.5795C8.71537 3.07096 9.16537 2.68057 9.68332 2.40835C10.2013 2.13612 10.7513 2 11.3333 2C12.2795 2 13.0716 2.31902 13.7096 2.95705C14.3476 3.59508 14.6666 4.38717 14.6666 5.33332C14.6666 5.81024 14.5827 6.28032 14.4147 6.74357C14.2468 7.20681 13.9515 7.71942 13.5288 8.28138C13.1062 8.84335 12.5346 9.48459 11.8141 10.2051C11.0936 10.9256 10.1786 11.7872 9.0692 12.7897L8.33332 13.4512ZM8.33332 12.1C9.39998 11.1402 10.2778 10.3175 10.9667 9.63203C11.6555 8.94657 12.2 8.35106 12.6 7.8455C13 7.33994 13.2778 6.89101 13.4333 6.4987C13.5889 6.10639 13.6667 5.71793 13.6667 5.33332C13.6667 4.66665 13.4444 4.11109 13 3.66665C12.5555 3.22221 12 2.99998 11.3333 2.99998C10.8068 2.99998 10.3203 3.14934 9.8737 3.44807C9.42712 3.74678 9.07349 4.16238 8.8128 4.69487H7.85383C7.58888 4.15811 7.23418 3.74144 6.78973 3.44485C6.34529 3.14827 5.85982 2.99998 5.33332 2.99998C4.67093 2.99998 4.11644 3.22221 3.66985 3.66665C3.22327 4.11109 2.99998 4.66665 2.99998 5.33332C2.99998 5.71793 3.07776 6.10639 3.23332 6.4987C3.38887 6.89101 3.66665 7.33994 4.06665 7.8455C4.46665 8.35106 5.01109 8.9455 5.69998 9.62883C6.38887 10.3122 7.26665 11.1359 8.33332 12.1Z" fill="white"/>
</g>
</svg>
