<svg width="46" height="46" viewBox="0 0 46 46" fill="none" xmlns="http://www.w3.org/2000/svg">
<path d="M33.5 20.1875C33.5016 20.9018 33.3616 21.6092 33.088 22.269C32.8144 22.9288 32.4128 23.5277 31.9062 24.0313L23.5344 32.5269C23.4646 32.5978 23.3814 32.6541 23.2897 32.6925C23.1979 32.7309 23.0994 32.7507 23 32.7507C22.9005 32.7507 22.8021 32.7309 22.7103 32.6925C22.6186 32.6541 22.5354 32.5978 22.4656 32.5269L14.0937 24.0313C13.0731 23.0119 12.4992 21.6287 12.4983 20.1862C12.4974 18.7436 13.0696 17.3598 14.0891 16.3391C15.1085 15.3184 16.4916 14.7445 17.9342 14.7437C19.3767 14.7428 20.7606 15.315 21.7812 16.3344L23 17.4735L24.2272 16.3307C24.9888 15.5728 25.958 15.0575 27.0122 14.85C28.0665 14.6425 29.1586 14.7519 30.1507 15.1646C31.1428 15.5772 31.9904 16.2745 32.5865 17.1685C33.1826 18.0625 33.5005 19.113 33.5 20.1875Z" fill="#DE2E1F"/>
</svg>
