<svg width="22" height="19" viewBox="0 0 22 19" fill="none" xmlns="http://www.w3.org/2000/svg">
<path d="M19.9064 2.34352C18.8874 1.32714 17.5075 0.755571 16.0683 0.753815C14.6291 0.752058 13.2478 1.32025 12.2264 2.33415L11.0001 3.47321L9.77293 2.3304C8.75176 1.31209 7.3679 0.741148 5.92577 0.743169C4.48365 0.745191 3.10139 1.32001 2.08308 2.34118C1.06478 3.36235 0.493833 4.74621 0.495855 6.18833C0.497877 7.63046 1.0727 9.01272 2.09386 10.031L10.4704 18.5304C10.5402 18.6013 10.6234 18.6575 10.7151 18.696C10.8069 18.7344 10.9053 18.7541 11.0048 18.7541C11.1043 18.7541 11.2027 18.7344 11.2945 18.696C11.3862 18.6575 11.4694 18.6013 11.5392 18.5304L19.9064 10.031C20.9254 9.01139 21.4978 7.62883 21.4978 6.18727C21.4978 4.74572 20.9254 3.36316 19.9064 2.34352ZM18.8423 8.97727L11.0001 16.931L3.15324 8.96977C2.41478 8.23131 1.99991 7.22974 1.99991 6.1854C1.99991 5.14105 2.41478 4.13948 3.15324 3.40102C3.8917 2.66256 4.89327 2.2477 5.93761 2.2477C6.98196 2.2477 7.98353 2.66256 8.72199 3.40102L8.74074 3.41977L10.4892 5.04634C10.628 5.17549 10.8105 5.2473 11.0001 5.2473C11.1897 5.2473 11.3723 5.17549 11.5111 5.04634L13.2595 3.41977L13.2782 3.40102C14.0172 2.66306 15.019 2.24887 16.0634 2.24957C17.1077 2.25027 18.109 2.66581 18.847 3.40477C19.585 4.14373 19.9991 5.14558 19.9984 6.18992C19.9977 7.23427 19.5822 8.23556 18.8432 8.97352L18.8423 8.97727Z" fill="#777777"/>
</svg>
