<svg width="46" height="46" viewBox="0 0 46 46" fill="none" xmlns="http://www.w3.org/2000/svg">
<path d="M31.9062 16.3435C30.8873 15.3271 29.5074 14.7556 28.0682 14.7538C26.629 14.7521 25.2477 15.3203 24.2262 16.3341L23 17.4732L21.7728 16.3304C20.7516 15.3121 19.3678 14.7411 17.9256 14.7432C16.4835 14.7452 15.1013 15.32 14.083 16.3412C13.0647 17.3623 12.4937 18.7462 12.4957 20.1883C12.4978 21.6305 13.0726 23.0127 14.0937 24.031L22.4703 32.5304C22.5401 32.6013 22.6233 32.6575 22.715 32.6959C22.8068 32.7344 22.9052 32.7541 23.0047 32.7541C23.1041 32.7541 23.2026 32.7344 23.2943 32.6959C23.3861 32.6575 23.4693 32.6013 23.5391 32.5304L31.9062 24.031C32.9253 23.0114 33.4977 21.6288 33.4977 20.1873C33.4977 18.7457 32.9253 17.3632 31.9062 16.3435ZM30.8422 22.9773L23 30.931L15.1531 22.9698C14.4147 22.2313 13.9998 21.2297 13.9998 20.1854C13.9998 19.1411 14.4147 18.1395 15.1531 17.401C15.8916 16.6626 16.8931 16.2477 17.9375 16.2477C18.9818 16.2477 19.9834 16.6626 20.7219 17.401L20.7406 17.4198L22.4891 19.0463C22.6278 19.1755 22.8104 19.2473 23 19.2473C23.1896 19.2473 23.3721 19.1755 23.5109 19.0463L25.2594 17.4198L25.2781 17.401C26.0171 16.6631 27.0189 16.2489 28.0633 16.2496C29.1076 16.2503 30.1089 16.6658 30.8469 17.4048C31.5848 18.1437 31.999 19.1456 31.9983 20.1899C31.9976 21.2343 31.5821 22.2356 30.8431 22.9735L30.8422 22.9773Z" fill="#777777"/>
</svg>
