<svg width="40" height="40" viewBox="0 0 40 40" fill="none" xmlns="http://www.w3.org/2000/svg">
<rect width="40" height="40" rx="20" fill="#DE2E1F"/>
<path d="M28.75 17.6562C28.7513 18.2514 28.6346 18.8409 28.4066 19.3908C28.1787 19.9406 27.8439 20.4397 27.4218 20.8593L20.4453 27.939C20.3871 27.9981 20.3178 28.045 20.2413 28.077C20.1649 28.109 20.0828 28.1255 20 28.1255C19.9171 28.1255 19.835 28.109 19.7586 28.077C19.6821 28.045 19.6128 27.9981 19.5546 27.939L12.5781 20.8593C11.7275 20.0098 11.2493 18.8572 11.2485 17.6551C11.2478 16.4529 11.7246 15.2997 12.5742 14.4492C13.4237 13.5986 14.5763 13.1204 15.7784 13.1196C16.9806 13.1189 18.1338 13.5957 18.9843 14.4453L20 15.3945L21.0226 14.4421C21.6573 13.8106 22.4649 13.3812 23.3435 13.2083C24.222 13.0353 25.1321 13.1265 25.9589 13.4704C26.7856 13.8143 27.492 14.3954 27.9887 15.1404C28.4855 15.8853 28.7504 16.7608 28.75 17.6562Z" fill="white"/>
</svg>
