<svg width="32" height="32" viewBox="0 0 32 32" fill="none" xmlns="http://www.w3.org/2000/svg">
<mask id="mask0_2277_4513" style="mask-type:alpha" maskUnits="userSpaceOnUse" x="0" y="0" width="32" height="32">
<rect width="32" height="32" fill="#D9D9D9"/>
</mask>
<g mask="url(#mask0_2277_4513)">
<path d="M7.48709 26.6668C6.87342 26.6668 6.36103 26.4613 5.94992 26.0502C5.53881 25.6391 5.33325 25.1267 5.33325 24.513V7.48733C5.33325 6.87366 5.53881 6.36127 5.94992 5.95016C6.36103 5.53905 6.87342 5.3335 7.48709 5.3335H24.5128C25.1264 5.3335 25.6388 5.53905 26.0499 5.95016C26.461 6.36127 26.6666 6.87366 26.6666 7.48733V24.513C26.6666 25.1267 26.461 25.6391 26.0499 26.0502C25.6388 26.4613 25.1264 26.6668 24.5128 26.6668H7.48709ZM9.99992 22.0002H22.2051L18.4358 16.9745L14.9487 21.3848L12.6153 18.5643L9.99992 22.0002ZM11.3333 12.6668C11.7008 12.6668 12.0149 12.5365 12.2756 12.2758C12.5362 12.0151 12.6666 11.701 12.6666 11.3335C12.6666 10.966 12.5362 10.6519 12.2756 10.3912C12.0149 10.1305 11.7008 10.0002 11.3333 10.0002C10.9657 10.0002 10.6516 10.1305 10.391 10.3912C10.1303 10.6519 9.99992 10.966 9.99992 11.3335C9.99992 11.701 10.1303 12.0151 10.391 12.2758C10.6516 12.5365 10.9657 12.6668 11.3333 12.6668Z" fill="#BABABA"/>
</g>
</svg>
