<svg width="24" height="24" viewBox="0 0 24 24" fill="none" xmlns="http://www.w3.org/2000/svg">
<mask id="mask0_2277_4717" style="mask-type:alpha" maskUnits="userSpaceOnUse" x="0" y="0" width="24" height="24">
<rect width="24" height="24" fill="#D9D9D9"/>
</mask>
<g mask="url(#mask0_2277_4717)">
<path d="M13 20.5C11.8693 20.5 10.8 20.29 9.79236 19.8701C8.78467 19.4503 7.88852 18.8692 7.10391 18.1269L8.18273 17.0577C8.82888 17.6615 9.55741 18.1362 10.3683 18.4817C11.1792 18.8272 12.0564 19 13 19C14.9398 19 16.5914 18.3182 17.9548 16.9548C19.3183 15.5913 20 13.9397 20 12C20 10.0666 19.3167 8.41664 17.95 7.04998C16.5834 5.68331 14.9334 4.99998 13 4.99998C11.0667 4.99998 9.4167 5.68331 8.05003 7.04998C6.68337 8.41664 6.00003 10.0666 6.00003 12V12.7808L7.98851 10.7923L9.05771 11.8365L5.25006 15.6442L1.44238 11.8365L2.51161 10.7923L4.50006 12.8058V12C4.50006 10.82 4.72314 9.71474 5.16931 8.68423C5.61546 7.65371 6.22186 6.75512 6.98851 5.98845C7.75517 5.2218 8.65371 4.6154 9.68411 4.16925C10.7145 3.72308 11.8196 3.5 12.9995 3.5C14.1793 3.5 15.2846 3.72308 16.3154 4.16925C17.3462 4.6154 18.2449 5.2218 19.0116 5.98845C19.7782 6.75512 20.3846 7.65362 20.8308 8.68395C21.2769 9.71428 21.5 10.8193 21.5 11.9991C21.5 14.3587 20.6736 16.3653 19.0208 18.0192C17.3681 19.673 15.3611 20.5 13 20.5ZM11 15.8846C10.7331 15.8846 10.5092 15.7943 10.3286 15.6137C10.148 15.4331 10.0577 15.2093 10.0577 14.9423V11.9423C10.0577 11.6753 10.1536 11.4515 10.3452 11.2709C10.5369 11.0903 10.7744 11 11.0577 11V9.94228C11.0577 9.40814 11.2479 8.95089 11.6283 8.57053C12.0086 8.19016 12.4659 7.99998 13 7.99998C13.5342 7.99998 13.9914 8.19016 14.3718 8.57053C14.7521 8.95089 14.9423 9.40814 14.9423 9.94228V11C15.2257 11 15.4632 11.0903 15.6548 11.2709C15.8465 11.4515 15.9423 11.6753 15.9423 11.9423V14.9423C15.9423 15.2093 15.852 15.4331 15.6714 15.6137C15.4908 15.7943 15.267 15.8846 15 15.8846H11ZM11.9423 11H14.0577V9.946C14.0577 9.64737 13.9555 9.39581 13.751 9.19133C13.5465 8.98683 13.2962 8.88458 13 8.88458C12.7039 8.88458 12.4536 8.98683 12.2491 9.19133C12.0446 9.39581 11.9423 9.64737 11.9423 9.946V11Z" fill="#363232"/>
</g>
</svg>
