<svg width="24" height="24" viewBox="0 0 24 24" fill="none" xmlns="http://www.w3.org/2000/svg">
<mask id="mask0_2277_4718" style="mask-type:alpha" maskUnits="userSpaceOnUse" x="0" y="0" width="24" height="24">
<rect width="24" height="24" fill="#D9D9D9"/>
</mask>
<g mask="url(#mask0_2277_4718)">
<path d="M7.19238 2.28857H16.8077V9.75395C16.8077 10.1244 16.718 10.4613 16.5385 10.7645C16.359 11.0677 16.1129 11.3142 15.8 11.504L12.3462 13.5655L13.0654 15.9039H16.4039L13.6693 17.8347L14.7347 21.1924L12.0001 19.1116L9.26546 21.1924L10.3308 17.8347L7.59626 15.9039H10.9347L11.6539 13.5655L8.18083 11.5232C7.86802 11.3398 7.62507 11.0934 7.45201 10.7838C7.27892 10.4741 7.19238 10.1309 7.19238 9.75395V2.28857ZM8.69233 3.78855V9.75395C8.69233 9.8501 8.71637 9.93824 8.76446 10.0184C8.81254 10.0985 8.87825 10.1642 8.96158 10.2155L11.2501 11.5694V3.78855H8.69233ZM15.3078 3.78855H12.75V11.5694L15.0385 10.2155C15.1219 10.1642 15.1876 10.0985 15.2357 10.0184C15.2837 9.93824 15.3078 9.8501 15.3078 9.75395V3.78855Z" fill="#363232"/>
</g>
</svg>
