<svg width="24" height="24" viewBox="0 0 24 24" fill="none" xmlns="http://www.w3.org/2000/svg">
<mask id="mask0_2185_17608" style="mask-type:alpha" maskUnits="userSpaceOnUse" x="0" y="0" width="24" height="24">
<rect width="24" height="24" fill="#D9D9D9"/>
</mask>
<g mask="url(#mask0_2185_17608)">
<path d="M12 18.5384C11.725 18.5384 11.4896 18.4405 11.2938 18.2446C11.0979 18.0488 11 17.8134 11 17.5384C11 17.2634 11.0979 17.0279 11.2938 16.8321C11.4896 16.6363 11.725 16.5384 12 16.5384C12.275 16.5384 12.5104 16.6363 12.7063 16.8321C12.9021 17.0279 13 17.2634 13 17.5384C13 17.8134 12.9021 18.0488 12.7063 18.2446C12.5104 18.4405 12.275 18.5384 12 18.5384ZM12 12.9999C11.725 12.9999 11.4896 12.902 11.2938 12.7062C11.0979 12.5103 11 12.2749 11 11.9999C11 11.7249 11.0979 11.4895 11.2938 11.2937C11.4896 11.0978 11.725 10.9999 12 10.9999C12.275 10.9999 12.5104 11.0978 12.7063 11.2937C12.9021 11.4895 13 11.7249 13 11.9999C13 12.2749 12.9021 12.5103 12.7063 12.7062C12.5104 12.902 12.275 12.9999 12 12.9999ZM12 7.46145C11.725 7.46145 11.4896 7.36353 11.2938 7.1677C11.0979 6.97187 11 6.73644 11 6.46143C11 6.18643 11.0979 5.95101 11.2938 5.75518C11.4896 5.55934 11.725 5.46143 12 5.46143C12.275 5.46143 12.5104 5.55934 12.7063 5.75518C12.9021 5.95101 13 6.18643 13 6.46143C13 6.73644 12.9021 6.97187 12.7063 7.1677C12.5104 7.36353 12.275 7.46145 12 7.46145Z" fill="#777777"/>
</g>
</svg>
