<svg width="46" height="46" viewBox="0 0 46 46" fill="none" xmlns="http://www.w3.org/2000/svg">
<path d="M15.5 29.7884V28.2884H17.3077V20.8269C17.3077 19.482 17.7228 18.2929 18.5529 17.2596C19.383 16.2262 20.4487 15.5653 21.75 15.2769V14.6538C21.75 14.3066 21.8714 14.0115 22.1143 13.7684C22.3571 13.5253 22.6519 13.4038 22.9988 13.4038C23.3457 13.4038 23.641 13.5253 23.8846 13.7684C24.1282 14.0115 24.25 14.3066 24.25 14.6538V15.2769C25.5512 15.5653 26.6169 16.2262 27.4471 17.2596C28.2772 18.2929 28.6922 19.482 28.6922 20.8269V28.2884H30.5V29.7884H15.5ZM22.9983 32.5961C22.5007 32.5961 22.0753 32.4191 21.7221 32.0651C21.3689 31.7111 21.1923 31.2855 21.1923 30.7884H24.8077C24.8077 31.2871 24.6305 31.7131 24.2761 32.0663C23.9218 32.4195 23.4959 32.5961 22.9983 32.5961ZM18.8077 28.2884H27.1923V20.8269C27.1923 19.6692 26.783 18.681 25.9644 17.8624C25.1458 17.0438 24.1577 16.6345 23 16.6345C21.8423 16.6345 20.8541 17.0438 20.0356 17.8624C19.217 18.681 18.8077 19.6692 18.8077 20.8269V28.2884Z" fill="#363232"/>
</svg>
