<svg width="46" height="46" viewBox="0 0 46 46" fill="none" xmlns="http://www.w3.org/2000/svg">
<path d="M14.5 29.7884V28.2884H16.3077V20.8269C16.3077 19.482 16.7228 18.2929 17.5529 17.2596C18.383 16.2262 19.4487 15.5653 20.75 15.2769V14.6538C20.75 14.3066 20.8714 14.0115 21.1143 13.7684C21.3571 13.5253 21.6519 13.4038 21.9988 13.4038C22.3457 13.4038 22.641 13.5253 22.8846 13.7684C23.1282 14.0115 23.25 14.3066 23.25 14.6538V15.2769C24.5512 15.5653 25.6169 16.2262 26.4471 17.2596C27.2772 18.2929 27.6922 19.482 27.6922 20.8269V28.2884H29.5V29.7884H14.5ZM21.9983 32.5961C21.5007 32.5961 21.0753 32.4191 20.7221 32.0651C20.3689 31.7111 20.1923 31.2855 20.1923 30.7884H23.8077C23.8077 31.2871 23.6305 31.7131 23.2761 32.0663C22.9218 32.4195 22.4959 32.5961 21.9983 32.5961ZM17.8077 28.2884H26.1923V20.8269C26.1923 19.6692 25.783 18.681 24.9644 17.8624C24.1458 17.0438 23.1577 16.6345 22 16.6345C20.8423 16.6345 19.8541 17.0438 19.0356 17.8624C18.217 18.681 17.8077 19.6692 17.8077 20.8269V28.2884Z" fill="#363232"/>
<circle cx="28" cy="19" r="3.5" fill="#DE2E1F"/>
</svg>
