<svg width="46" height="46" viewBox="0 0 46 46" fill="none" xmlns="http://www.w3.org/2000/svg">
<path d="M32.7388 27.4136C32.5716 28.6839 31.9477 29.85 30.9837 30.6939C30.0196 31.5379 28.7813 32.0021 27.5 31.9998C20.0563 31.9998 14 25.9436 14 18.4998C13.9977 17.2185 14.4619 15.9802 15.3059 15.0161C16.1499 14.0521 17.3159 13.4282 18.5863 13.2611C18.9075 13.2218 19.2328 13.2876 19.5136 13.4484C19.7944 13.6093 20.0157 13.8566 20.1444 14.1536L22.1244 18.5739V18.5851C22.2229 18.8124 22.2636 19.0606 22.2428 19.3074C22.222 19.5543 22.1404 19.7922 22.0053 19.9998C21.9884 20.0251 21.9706 20.0486 21.9519 20.072L20 22.3857C20.7022 23.8126 22.1947 25.292 23.6403 25.9961L25.9222 24.0545C25.9446 24.0357 25.9681 24.0181 25.9925 24.002C26.2 23.8636 26.4387 23.7792 26.687 23.7562C26.9353 23.7333 27.1854 23.7727 27.4147 23.8707L27.4269 23.8764L31.8434 25.8554C32.1409 25.9837 32.3889 26.2047 32.5503 26.4856C32.7116 26.7664 32.7778 27.092 32.7388 27.4136Z" fill="#777777"/>
</svg>
