<svg width="46" height="46" viewBox="0 0 46 46" fill="none" xmlns="http://www.w3.org/2000/svg">
<path d="M31.8472 25.8554L27.4306 23.8764L27.4184 23.8707C27.1892 23.7727 26.939 23.7333 26.6907 23.7562C26.4424 23.7792 26.2037 23.8636 25.9963 24.002C25.9718 24.0181 25.9484 24.0357 25.9259 24.0545L23.6441 25.9998C22.1984 25.2976 20.7059 23.8164 20.0038 22.3895L21.9519 20.0729C21.9706 20.0495 21.9884 20.0261 22.0053 20.0007C22.1407 19.7938 22.2229 19.5567 22.2445 19.3103C22.2661 19.064 22.2264 18.8162 22.1291 18.5889V18.5776L20.1444 14.1536C20.0157 13.8566 19.7944 13.6093 19.5136 13.4484C19.2328 13.2876 18.9075 13.2218 18.5863 13.2611C17.3159 13.4282 16.1499 14.0521 15.3059 15.0161C14.4619 15.9802 13.9977 17.2185 14 18.4998C14 25.9436 20.0563 31.9998 27.5 31.9998C28.7813 32.0021 30.0196 31.5379 30.9837 30.6939C31.9477 29.85 32.5716 28.6839 32.7388 27.4136C32.7781 27.0924 32.7125 26.7672 32.5518 26.4864C32.3911 26.2056 32.144 25.9843 31.8472 25.8554ZM27.5 30.4998C24.3185 30.4963 21.2682 29.2309 19.0186 26.9813C16.7689 24.7316 15.5035 21.6813 15.5 18.4998C15.4965 17.5843 15.8263 16.6989 16.4279 16.0088C17.0295 15.3187 17.8617 14.8712 18.7691 14.7498C18.7687 14.7536 18.7687 14.7573 18.7691 14.7611L20.7378 19.1673L18.8 21.4867C18.7803 21.5093 18.7625 21.5335 18.7466 21.5589C18.6055 21.7754 18.5227 22.0246 18.5063 22.2825C18.4899 22.5404 18.5403 22.7981 18.6528 23.0307C19.5022 24.7679 21.2525 26.5051 23.0084 27.3536C23.2428 27.465 23.502 27.5137 23.7608 27.495C24.0196 27.4762 24.2692 27.3907 24.485 27.2467C24.5091 27.2305 24.5322 27.2129 24.5544 27.1942L26.8334 25.2498L31.2397 27.2232C31.2397 27.2232 31.2472 27.2232 31.25 27.2232C31.1301 28.1319 30.6833 28.9658 29.9931 29.5689C29.3028 30.1719 28.4166 30.5029 27.5 30.4998Z" fill="#777777"/>
</svg>
