<svg width="32" height="32" viewBox="0 0 32 32" fill="none" xmlns="http://www.w3.org/2000/svg">
<path d="M16 22.4167C17.5 22.4167 18.775 21.9062 19.825 20.8854C20.875 19.8646 21.4 18.625 21.4 17.1667C21.4 15.7083 20.875 14.4688 19.825 13.4479C18.775 12.4271 17.5 11.9167 16 11.9167C14.5 11.9167 13.225 12.4271 12.175 13.4479C11.125 14.4688 10.6 15.7083 10.6 17.1667C10.6 18.625 11.125 19.8646 12.175 20.8854C13.225 21.9062 14.5 22.4167 16 22.4167ZM16 20.0833C15.16 20.0833 14.45 19.8014 13.87 19.2375C13.29 18.6736 13 17.9833 13 17.1667C13 16.35 13.29 15.6597 13.87 15.0958C14.45 14.5319 15.16 14.25 16 14.25C16.84 14.25 17.55 14.5319 18.13 15.0958C18.71 15.6597 19 16.35 19 17.1667C19 17.9833 18.71 18.6736 18.13 19.2375C17.55 19.8014 16.84 20.0833 16 20.0833ZM6.4 26.5C5.74 26.5 5.175 26.2715 4.705 25.8146C4.235 25.3576 4 24.8083 4 24.1667V10.1667C4 9.525 4.235 8.97569 4.705 8.51875C5.175 8.06181 5.74 7.83333 6.4 7.83333H10.18L12.4 5.5H19.6L21.82 7.83333H25.6C26.26 7.83333 26.825 8.06181 27.295 8.51875C27.765 8.97569 28 9.525 28 10.1667V24.1667C28 24.8083 27.765 25.3576 27.295 25.8146C26.825 26.2715 26.26 26.5 25.6 26.5H6.4Z" fill="#BABABA"/>
</svg>
