<svg width="40" height="40" viewBox="0 0 40 40" fill="none" xmlns="http://www.w3.org/2000/svg">
<rect width="40" height="40" rx="20" fill="#DE2E1F"/>
<path d="M16.2692 30V20.4899C15.4961 20.3657 14.8413 19.9926 14.3048 19.3704C13.7683 18.7483 13.5 17.9865 13.5 17.085V10H14.5V17.085H16.2692V10H17.2692V17.085H19.0385V10H20.0385V17.085C20.0385 17.9865 19.7702 18.7483 19.2336 19.3704C18.6971 19.9926 18.0423 20.3657 17.2692 20.4899V30H16.2692ZM25.5 30V21.5789H23.0384V14.7368C23.0384 13.5641 23.3529 12.5253 23.9817 11.6204C24.6106 10.7156 25.45 10.1889 26.5 10.0405V30H25.5Z" fill="white"/>
</svg>
