<svg width="18" height="18" viewBox="0 0 18 18" fill="none" xmlns="http://www.w3.org/2000/svg">
<path d="M16.5424 17.5961L10.2616 11.3153C9.76158 11.7281 9.18658 12.0512 8.53658 12.2845C7.88658 12.5178 7.21415 12.6345 6.51928 12.6345C4.81011 12.6345 3.3636 12.0427 2.17973 10.8592C0.995864 9.67559 0.403931 8.22945 0.403931 6.52073C0.403931 4.812 0.995714 3.36533 2.17928 2.18071C3.36285 0.996108 4.809 0.403809 6.51773 0.403809C8.22645 0.403809 9.67311 0.995743 10.8577 2.17961C12.0423 3.36348 12.6347 4.80999 12.6347 6.51916C12.6347 7.23326 12.5148 7.91531 12.275 8.56531C12.0353 9.21531 11.7154 9.78069 11.3154 10.2615L17.5962 16.5422L16.5424 17.5961ZM6.51928 11.1346C7.80775 11.1346 8.8991 10.6874 9.79333 9.79321C10.6876 8.89898 11.1347 7.80763 11.1347 6.51916C11.1347 5.23069 10.6876 4.13934 9.79333 3.24511C8.8991 2.35088 7.80775 1.90376 6.51928 1.90376C5.23081 1.90376 4.13946 2.35088 3.24523 3.24511C2.35101 4.13934 1.90391 5.23069 1.90391 6.51916C1.90391 7.80763 2.35101 8.89898 3.24523 9.79321C4.13946 10.6874 5.23081 11.1346 6.51928 11.1346Z" fill="#363232"/>
</svg>
