<svg width="30" height="30" viewBox="0 0 30 30" fill="none" xmlns="http://www.w3.org/2000/svg">
<path d="M-1.90735e-06 15C-1.90735e-06 23.2059 6.80882 30 15 30C23.2059 30 30 23.1912 30 14.9853C30 6.79412 23.2059 0 15 0C6.80882 0 -1.90735e-06 6.80882 -1.90735e-06 15ZM7.41176 15.0147C7.41176 14.3529 7.88235 13.8676 8.55882 13.8676L16.1029 13.8676L19.3235 14L17.5 12.4853L15.6912 10.6912C15.4853 10.4853 15.3529 10.1912 15.3529 9.88235C15.3529 9.25 15.8382 8.77941 16.4559 8.77941C16.7794 8.77941 17.0441 8.86765 17.25 9.07353L22.2941 14.1324C22.6029 14.4412 22.7206 14.6912 22.7206 15.0147C22.7206 15.3529 22.5882 15.6176 22.2941 15.9118L17.25 20.9559C17.0441 21.1618 16.7794 21.2794 16.4559 21.2794C15.8382 21.2794 15.3529 20.7941 15.3529 20.1618C15.3529 19.8382 15.4706 19.5588 15.6912 19.3529L17.5 17.5735L19.3382 16.0294L16.1029 16.1618H8.55882C7.88235 16.1618 7.41176 15.6912 7.41176 15.0147Z" fill="#E9E9E9"/>
</svg>
