<svg width="46" height="46" viewBox="0 0 46 46" fill="none" xmlns="http://www.w3.org/2000/svg">
<path d="M21.1346 32L20.7731 29.1077C20.4539 29.0115 20.1087 28.8603 19.7375 28.6538C19.3664 28.4474 19.0507 28.2263 18.7904 27.9904L16.1231 29.125L14.2577 25.875L16.5635 24.1365C16.534 23.9558 16.5096 23.7695 16.4904 23.5779C16.4712 23.3862 16.4615 23.2 16.4615 23.0192C16.4615 22.8513 16.4712 22.6747 16.4904 22.4894C16.5096 22.3042 16.534 22.0955 16.5635 21.8635L14.2577 20.125L16.1231 16.9135L18.7712 18.0289C19.0699 17.7801 19.393 17.5558 19.7404 17.3558C20.0878 17.1558 20.4256 17.0013 20.7539 16.8923L21.1346 14H24.8654L25.2269 16.9115C25.6103 17.0461 25.9491 17.2006 26.2433 17.375C26.5375 17.5494 26.8404 17.7673 27.1519 18.0289L29.8769 16.9135L31.7423 20.125L29.3596 21.9212C29.4148 22.1276 29.4455 22.317 29.4519 22.4894C29.4584 22.6619 29.4616 22.8321 29.4616 23C29.4616 23.1551 29.4552 23.3189 29.4423 23.4914C29.4295 23.6638 29.4 23.8724 29.3539 24.1173L31.6981 25.875L29.8327 29.125L27.1519 27.9712C26.8404 28.2327 26.5269 28.4571 26.2116 28.6442C25.8962 28.8314 25.568 28.9795 25.2269 29.0885L24.8654 32H21.1346ZM22 31H23.9558L24.325 28.2923C24.8289 28.159 25.2824 27.976 25.6856 27.7433C26.0888 27.5106 26.4994 27.1917 26.9173 26.7866L29.4116 27.85L30.4058 26.15L28.2173 24.5058C28.3006 24.2212 28.3558 23.9593 28.3827 23.7202C28.4096 23.4811 28.4231 23.241 28.4231 23C28.4231 22.7462 28.4096 22.5061 28.3827 22.2798C28.3558 22.0535 28.3006 21.8045 28.2173 21.5327L30.4442 19.85L29.45 18.15L26.8981 19.2192C26.5955 18.8872 26.1978 18.576 25.7048 18.2856C25.2119 17.9952 24.7455 17.8026 24.3058 17.7077L24 15H22.0058L21.6942 17.6885C21.1904 17.7962 20.7272 17.9696 20.3048 18.2087C19.8824 18.4478 19.4622 18.7763 19.0442 19.1942L16.55 18.15L15.5558 19.85L17.725 21.4692C17.6417 21.6936 17.5833 21.9372 17.55 22.2C17.5167 22.4628 17.5 22.7359 17.5 23.0192C17.5 23.2731 17.5167 23.525 17.55 23.775C17.5833 24.025 17.6353 24.2686 17.7058 24.5058L15.5558 26.15L16.55 27.85L19.025 26.8C19.4173 27.1961 19.8247 27.5138 20.2471 27.7529C20.6696 27.992 21.1455 28.1782 21.675 28.3116L22 31ZM22.9731 25.5C23.6705 25.5 24.2615 25.2577 24.7462 24.7731C25.2308 24.2885 25.4731 23.6974 25.4731 23C25.4731 22.3026 25.2308 21.7115 24.7462 21.2269C24.2615 20.7423 23.6705 20.5 22.9731 20.5C22.2718 20.5 21.6798 20.7423 21.1971 21.2269C20.7144 21.7115 20.4731 22.3026 20.4731 23C20.4731 23.6974 20.7144 24.2885 21.1971 24.7731C21.6798 25.2577 22.2718 25.5 22.9731 25.5Z" fill="#363232"/>
</svg>
