<svg width="24" height="24" viewBox="0 0 26 24" fill="none" xmlns="http://www.w3.org/2000/svg">
<path d="M17.1375 9.21937C17.2109 9.28903 17.2691 9.37175 17.3089 9.46279C17.3486 9.55384 17.369 9.65144 17.369 9.75C17.369 9.84856 17.3486 9.94616 17.3089 10.0372C17.2691 10.1283 17.2109 10.211 17.1375 10.2806L11.6112 15.5306C11.5379 15.6004 11.4508 15.6557 11.3549 15.6934C11.2591 15.7312 11.1564 15.7506 11.0526 15.7506C10.9489 15.7506 10.8461 15.7312 10.7503 15.6934C10.6545 15.6557 10.5674 15.6004 10.4941 15.5306L8.12565 13.2806C7.97751 13.1399 7.89429 12.949 7.89429 12.75C7.89429 12.551 7.97751 12.3601 8.12565 12.2194C8.27379 12.0786 8.4747 11.9996 8.6842 11.9996C8.8937 11.9996 9.09462 12.0786 9.24276 12.2194L11.0526 13.9397L16.0204 9.21937C16.0937 9.14964 16.1808 9.09432 16.2766 9.05658C16.3725 9.01884 16.4752 8.99941 16.5789 8.99941C16.6827 8.99941 16.7854 9.01884 16.8813 9.05658C16.9771 9.09432 17.0642 9.14964 17.1375 9.21937ZM22.8947 12C22.8947 13.9284 22.2928 15.8134 21.1651 17.4168C20.0373 19.0202 18.4345 20.2699 16.5591 21.0078C14.6838 21.7458 12.6202 21.9389 10.6293 21.5627C8.63847 21.1865 6.80975 20.2579 5.37442 18.8943C3.93909 17.5307 2.96162 15.7934 2.56562 13.9021C2.16961 12.0108 2.37286 10.0504 3.14965 8.26884C3.92644 6.48726 5.2419 4.96451 6.92967 3.89317C8.61743 2.82183 10.6017 2.25 12.6316 2.25C15.3526 2.25273 17.9615 3.28084 19.8855 5.10872C21.8096 6.93661 22.8919 9.41498 22.8947 12ZM21.3158 12C21.3158 10.3683 20.8065 8.77325 19.8522 7.41655C18.898 6.05984 17.5417 5.00242 15.9549 4.37799C14.368 3.75357 12.6219 3.59019 10.9374 3.90852C9.25279 4.22685 7.70542 5.01259 6.49091 6.16637C5.2764 7.32015 4.44931 8.79016 4.11422 10.3905C3.77914 11.9908 3.95112 13.6496 4.60841 15.1571C5.26569 16.6646 6.37877 17.9531 7.80688 18.8596C9.23499 19.7661 10.914 20.25 12.6316 20.25C14.934 20.2475 17.1413 19.3775 18.7694 17.8309C20.3974 16.2843 21.3132 14.1873 21.3158 12Z" fill="#BABABA"/>
</svg>
