<svg width="18" height="24" viewBox="0 0 18 24" fill="none" xmlns="http://www.w3.org/2000/svg">
<path d="M16 12.9343C16 13.0581 15.9508 13.1768 15.8633 13.2643C15.7758 13.3518 15.6571 13.401 15.5333 13.401H14.6V14.3343C14.6 14.4581 14.5508 14.5768 14.4633 14.6643C14.3758 14.7518 14.2571 14.801 14.1333 14.801C14.0095 14.801 13.8908 14.7518 13.8033 14.6643C13.7158 14.5768 13.6666 14.4581 13.6666 14.3343V13.401H12.7333C12.6095 13.401 12.4908 13.3518 12.4033 13.2643C12.3158 13.1768 12.2666 13.0581 12.2666 12.9343C12.2666 12.8105 12.3158 12.6918 12.4033 12.6043C12.4908 12.5168 12.6095 12.4676 12.7333 12.4676H13.6666V11.5343C13.6666 11.4105 13.7158 11.2918 13.8033 11.2043C13.8908 11.1168 14.0095 11.0676 14.1333 11.0676C14.2571 11.0676 14.3758 11.1168 14.4633 11.2043C14.5508 11.2918 14.6 11.4105 14.6 11.5343V12.4676H15.5333C15.6571 12.4676 15.7758 12.5168 15.8633 12.6043C15.9508 12.6918 16 12.8105 16 12.9343ZM12.6242 16.3673C12.7039 16.4621 12.7426 16.5847 12.7319 16.7081C12.7212 16.8315 12.6619 16.9456 12.567 17.0253C12.4722 17.1049 12.3496 17.1437 12.2262 17.133C12.1028 17.1222 11.9887 17.0629 11.909 16.9681C10.7354 15.5704 9.12184 14.801 7.36657 14.801C5.6113 14.801 3.99779 15.5704 2.82411 16.9681C2.74443 17.0629 2.63037 17.1221 2.50703 17.1327C2.38368 17.1434 2.26115 17.1046 2.16639 17.025C2.07163 16.9453 2.0124 16.8312 2.00174 16.7079C1.99107 16.5845 2.02984 16.462 2.10952 16.3673C2.98103 15.3301 4.06487 14.5933 5.26947 14.199C4.5379 13.7433 3.97464 13.0618 3.66489 12.2576C3.35515 11.4533 3.31577 10.57 3.55273 9.74136C3.78968 8.91272 4.29007 8.18379 4.97819 7.66486C5.66631 7.14593 6.50472 6.86523 7.36657 6.86523C8.22843 6.86523 9.06684 7.14593 9.75496 7.66486C10.4431 8.18379 10.9435 8.91272 11.1804 9.74136C11.4174 10.57 11.378 11.4533 11.0683 12.2576C10.7585 13.0618 10.1952 13.7433 9.46368 14.199C10.6683 14.5933 11.7521 15.3301 12.6242 16.3673ZM7.36657 13.8676C7.96652 13.8676 8.55299 13.6897 9.05182 13.3564C9.55066 13.0231 9.93945 12.5494 10.169 11.9951C10.3986 11.4408 10.4587 10.8309 10.3417 10.2425C10.2246 9.65408 9.93571 9.11359 9.51149 8.68936C9.08726 8.26514 8.54677 7.97624 7.95835 7.8592C7.36994 7.74215 6.76003 7.80222 6.20575 8.03181C5.65148 8.2614 5.17773 8.65019 4.84442 9.14903C4.51111 9.64786 4.33321 10.2343 4.33321 10.8343C4.33413 11.6385 4.65402 12.4095 5.22268 12.9782C5.79135 13.5468 6.56236 13.8667 7.36657 13.8676Z" fill="#DE2E1F"/>
</svg>
