<svg width="46" height="46" viewBox="0 0 46 46" fill="none" xmlns="http://www.w3.org/2000/svg">
<path d="M23 13.25C21.0716 13.25 19.1866 13.8218 17.5832 14.8932C15.9798 15.9645 14.7301 17.4873 13.9922 19.2688C13.2542 21.0504 13.0611 23.0108 13.4373 24.9021C13.8136 26.7934 14.7422 28.5307 16.1057 29.8943C17.4693 31.2579 19.2066 32.1865 21.0979 32.5627C22.9892 32.9389 24.9496 32.7458 26.7312 32.0078C28.5127 31.2699 30.0355 30.0202 31.1068 28.4168C32.1782 26.8134 32.75 24.9284 32.75 23C32.7473 20.415 31.7192 17.9366 29.8913 16.1087C28.0634 14.2808 25.585 13.2527 23 13.25ZM22.25 18.5C22.25 18.3011 22.329 18.1103 22.4697 17.9697C22.6103 17.829 22.8011 17.75 23 17.75C23.1989 17.75 23.3897 17.829 23.5303 17.9697C23.671 18.1103 23.75 18.3011 23.75 18.5V23.75C23.75 23.9489 23.671 24.1397 23.5303 24.2803C23.3897 24.421 23.1989 24.5 23 24.5C22.8011 24.5 22.6103 24.421 22.4697 24.2803C22.329 24.1397 22.25 23.9489 22.25 23.75V18.5ZM23 28.25C22.7775 28.25 22.56 28.184 22.375 28.0604C22.19 27.9368 22.0458 27.7611 21.9606 27.5555C21.8755 27.35 21.8532 27.1238 21.8966 26.9055C21.94 26.6873 22.0472 26.4868 22.2045 26.3295C22.3618 26.1722 22.5623 26.065 22.7805 26.0216C22.9988 25.9782 23.225 26.0005 23.4305 26.0856C23.6361 26.1708 23.8118 26.315 23.9354 26.5C24.059 26.685 24.125 26.9025 24.125 27.125C24.125 27.4234 24.0065 27.7095 23.7955 27.9205C23.5845 28.1315 23.2984 28.25 23 28.25Z" fill="#777777"/>
</svg>
